<?xml version="1.0" encoding="utf-8"?>
<!-- Generator: Adobe Illustrator 17.0.0, SVG Export Plug-In . SVG Version: 6.00 Build 0)  -->
<!DOCTYPE svg PUBLIC "-//W3C//DTD SVG 1.1//EN" "http://www.w3.org/Graphics/SVG/1.1/DTD/svg11.dtd">
<svg version="1.1" id="Layer_1" xmlns="http://www.w3.org/2000/svg" xmlns:xlink="http://www.w3.org/1999/xlink" x="0px" y="0px"
	 width="61.931px" height="25px" viewBox="-11.467 -6.202 61.931 25" enable-background="new -11.467 -6.202 61.931 25"
	 xml:space="preserve">
<path fill="#10357E" d="M12.051-3.346L3.944,15.997h-5.293L-5.338,0.559C-5.583-0.393-5.794-0.737-6.529-1.14
	c-1.201-0.656-3.187-1.267-4.937-1.648l0.121-0.559h8.514c1.086,0,2.061,0.719,2.307,1.972L1.583,9.819L6.788-3.347h5.263
	 M32.775,9.684c0.024-5.112-7.059-5.391-7.01-7.667c0.016-0.697,0.677-1.436,2.122-1.625c0.718-0.094,2.692-0.165,4.934,0.865
	l0.878-4.104c-1.199-0.435-2.754-0.858-4.68-0.858c-4.944,0-8.428,2.63-8.455,6.398c-0.03,2.782,2.485,4.335,4.383,5.263
	c1.949,0.946,2.601,1.553,2.596,2.406c-0.016,1.294-1.558,1.869-2.997,1.887c-2.515,0.043-3.978-0.677-5.139-1.216L18.5,15.271
	c1.169,0.537,3.327,0.999,5.566,1.026C29.321,16.3,32.761,13.701,32.775,9.684 M45.84,15.995h4.624L46.429-3.347h-4.273
	c-0.959,0-1.771,0.559-2.13,1.418l-7.508,17.924h5.252l1.045-2.887h6.421L45.84,15.995z M40.253,9.141l2.636-7.261l1.513,7.261
	H40.253z M19.2-3.346l-4.138,19.343h-5.004l4.14-19.343C14.198-3.346,19.2-3.346,19.2-3.346z"/>
</svg>
