<?xml version="1.0" encoding="utf-8"?>
<!-- Generator: Adobe Illustrator 17.0.0, SVG Export Plug-In . SVG Version: 6.00 Build 0)  -->
<!DOCTYPE svg PUBLIC "-//W3C//DTD SVG 1.1//EN" "http://www.w3.org/Graphics/SVG/1.1/DTD/svg11.dtd">
<svg version="1.1" id="Layer_1" xmlns="http://www.w3.org/2000/svg" xmlns:xlink="http://www.w3.org/1999/xlink" x="0px" y="0px"
	 width="32.139px" height="25px" viewBox="-2.101 -1.634 32.139 25" enable-background="new -2.101 -1.634 32.139 25"
	 xml:space="preserve">
<g>
	<path fill="#231F20" d="M3.744,23.225v-1.655c0-0.622-0.397-1.042-1.036-1.048c-0.337-0.005-0.684,0.1-0.927,0.469
		c-0.182-0.292-0.468-0.469-0.872-0.469c-0.281,0-0.557,0.083-0.772,0.392v-0.326h-0.574v2.637h0.58v-1.462
		c0-0.458,0.253-0.701,0.644-0.701c0.381,0,0.574,0.248,0.574,0.695v1.468h0.58v-1.462c0-0.458,0.265-0.701,0.645-0.701
		c0.392,0,0.58,0.248,0.58,0.695v1.468C3.166,23.225,3.744,23.225,3.744,23.225z M12.319,20.588h-0.939v-0.801h-0.579v0.801h-0.536
		v0.525h0.536v1.202c0,0.612,0.237,0.977,0.916,0.977c0.25,0,0.536-0.077,0.717-0.205l-0.166-0.49
		c-0.17,0.099-0.359,0.148-0.507,0.148c-0.286,0-0.381-0.176-0.381-0.442v-1.191h0.939C12.319,21.112,12.319,20.588,12.319,20.588z
		 M17.212,20.521c-0.33,0-0.545,0.155-0.694,0.387v-0.32h-0.569v2.637h0.574v-1.478c0-0.436,0.188-0.679,0.561-0.679
		c0.117,0,0.238,0.017,0.359,0.067l0.176-0.541C17.494,20.544,17.329,20.521,17.212,20.521 M9.814,20.797
		c-0.276-0.182-0.657-0.276-1.076-0.276c-0.667,0-1.097,0.321-1.097,0.844c0,0.43,0.32,0.696,0.91,0.778l0.27,0.039
		c0.314,0.044,0.464,0.127,0.464,0.276c0,0.204-0.212,0.32-0.602,0.32c-0.397,0-0.684-0.127-0.878-0.276l-0.27,0.447
		c0.315,0.231,0.712,0.342,1.142,0.342c0.762,0,1.203-0.359,1.203-0.86c0-0.464-0.347-0.706-0.921-0.789l-0.27-0.039
		c-0.248-0.033-0.447-0.083-0.447-0.259c0-0.193,0.188-0.309,0.503-0.309c0.336,0,0.661,0.128,0.823,0.227L9.814,20.797z
		 M25.185,20.521c-0.33,0-0.546,0.155-0.695,0.387v-0.32h-0.569v2.637h0.574v-1.478c0-0.436,0.188-0.679,0.564-0.679
		c0.115,0,0.237,0.017,0.358,0.067l0.177-0.541C25.467,20.544,25.301,20.521,25.185,20.521 M17.792,21.906
		c0,0.8,0.558,1.385,1.408,1.385c0.397,0,0.661-0.089,0.948-0.314l-0.275-0.464c-0.216,0.154-0.442,0.237-0.69,0.237
		c-0.458-0.006-0.795-0.337-0.795-0.844s0.337-0.839,0.795-0.844c0.248,0,0.474,0.083,0.69,0.238l0.275-0.464
		c-0.286-0.227-0.551-0.315-0.948-0.315C18.35,20.521,17.792,21.107,17.792,21.906 M23.166,21.906v-1.318h-0.574v0.32
		c-0.182-0.237-0.457-0.387-0.834-0.387c-0.739,0-1.318,0.58-1.318,1.385s0.581,1.385,1.318,1.385c0.376,0,0.651-0.15,0.834-0.387
		v0.32h0.574V21.906z M21.03,21.906c0-0.464,0.304-0.844,0.8-0.844c0.475,0,0.795,0.365,0.795,0.844c0,0.48-0.319,0.844-0.795,0.844
		C21.334,22.751,21.03,22.37,21.03,21.906 M14.106,20.521c-0.772,0-1.313,0.564-1.313,1.385c0,0.839,0.563,1.385,1.352,1.385
		c0.397,0,0.762-0.099,1.081-0.369l-0.282-0.426c-0.22,0.177-0.502,0.276-0.766,0.276c-0.37,0-0.706-0.171-0.79-0.645h1.959
		c0.005-0.071,0.01-0.144,0.01-0.221C15.353,21.085,14.846,20.521,14.106,20.521 M14.096,21.034c0.369,0,0.606,0.232,0.667,0.641
		h-1.369C13.455,21.294,13.688,21.034,14.096,21.034 M28.49,21.906v-2.378h-0.574v1.379c-0.182-0.237-0.458-0.387-0.833-0.387
		c-0.739,0-1.318,0.58-1.318,1.385s0.579,1.385,1.318,1.385c0.375,0,0.651-0.15,0.833-0.387v0.32h0.574V21.906z M29.446,22.843
		c0.037,0,0.071,0.007,0.105,0.021c0.031,0.014,0.061,0.032,0.084,0.056c0.024,0.024,0.044,0.052,0.058,0.084
		c0.015,0.031,0.022,0.066,0.022,0.101s-0.007,0.069-0.022,0.101c-0.014,0.032-0.032,0.06-0.058,0.084
		c-0.024,0.023-0.053,0.041-0.084,0.056c-0.032,0.014-0.068,0.02-0.105,0.02c-0.036,0-0.071-0.007-0.106-0.02
		c-0.032-0.015-0.061-0.033-0.085-0.056c-0.024-0.024-0.043-0.052-0.056-0.084c-0.014-0.031-0.021-0.066-0.021-0.101
		s0.007-0.071,0.021-0.101c0.014-0.032,0.032-0.06,0.056-0.084c0.024-0.024,0.053-0.043,0.085-0.056
		C29.374,22.849,29.411,22.843,29.446,22.843 M29.446,23.31c0.029,0,0.055-0.006,0.079-0.016c0.025-0.012,0.046-0.025,0.064-0.044
		c0.02-0.018,0.032-0.04,0.043-0.066c0.01-0.024,0.017-0.051,0.017-0.079s-0.007-0.055-0.017-0.079
		c-0.01-0.025-0.024-0.047-0.043-0.066c-0.018-0.018-0.039-0.032-0.064-0.043c-0.024-0.012-0.051-0.016-0.079-0.016
		c-0.028,0-0.055,0.005-0.079,0.016c-0.025,0.01-0.047,0.024-0.067,0.043c-0.018,0.018-0.031,0.04-0.043,0.066
		c-0.01,0.024-0.016,0.051-0.016,0.079s0.006,0.055,0.016,0.079c0.012,0.025,0.024,0.047,0.043,0.066
		c0.02,0.018,0.04,0.032,0.067,0.044C29.391,23.304,29.417,23.31,29.446,23.31 M29.462,22.982c0.03,0,0.055,0.007,0.071,0.022
		c0.018,0.014,0.025,0.032,0.025,0.056c0,0.021-0.007,0.037-0.021,0.049c-0.014,0.013-0.032,0.021-0.058,0.024l0.079,0.092h-0.063
		l-0.072-0.091H29.4v0.091h-0.052v-0.244C29.348,22.982,29.462,22.982,29.462,22.982z M29.401,23.028v0.066h0.061
		c0.014,0,0.024-0.003,0.031-0.009c0.008-0.005,0.014-0.013,0.014-0.024c0-0.01-0.006-0.02-0.014-0.024
		c-0.008-0.006-0.018-0.008-0.031-0.008H29.401z M26.355,21.906c0-0.464,0.303-0.844,0.8-0.844c0.473,0,0.795,0.365,0.795,0.844
		c0,0.48-0.321,0.844-0.795,0.844C26.658,22.751,26.355,22.37,26.355,21.906 M6.979,21.906v-1.318H6.405v0.32
		c-0.182-0.237-0.458-0.387-0.834-0.387c-0.739,0-1.318,0.58-1.318,1.385s0.579,1.385,1.318,1.385c0.375,0,0.651-0.15,0.834-0.387
		v0.32h0.574V21.906z M4.843,21.906c0-0.464,0.304-0.844,0.8-0.844c0.475,0,0.794,0.365,0.794,0.844c0,0.48-0.319,0.844-0.794,0.844
		C5.147,22.751,4.843,22.37,4.843,21.906"/>
	<rect x="9.623" y="0.491" fill="#FF5F00" width="8.691" height="15.618"/>
	<path fill="#EB001B" d="M10.176,8.298c0-3.168,1.483-5.99,3.794-7.809c-1.691-1.33-3.823-2.124-6.138-2.124
		c-5.486,0-9.932,4.447-9.932,9.932s4.446,9.932,9.932,9.932c2.317,0,4.447-0.794,6.138-2.124
		C11.659,14.288,10.176,11.466,10.176,8.298"/>
	<path fill="#F79E1B" d="M30.039,8.298c0,5.485-4.446,9.932-9.932,9.932c-2.318,0-4.449-0.794-6.138-2.124
		c2.311-1.819,3.795-4.641,3.795-7.809s-1.484-5.99-3.795-7.809c1.69-1.33,3.822-2.124,6.14-2.124
		C25.592-1.634,30.039,2.813,30.039,8.298"/>
	<path fill="#F79E1B" d="M29.091,14.453v-0.32h0.129v-0.066h-0.329v0.066h0.13v0.32H29.091z M29.729,14.453v-0.385h-0.101
		l-0.116,0.265l-0.116-0.265h-0.1v0.385h0.069v-0.291l0.109,0.251h0.074l0.108-0.252v0.292H29.729z"/>
</g>
</svg>
